<svg width="18" height="10" viewBox="0 0 18 10" fill="none" xmlns="http://www.w3.org/2000/svg">
<path d="M11.7551 0.0283203C11.959 1.14432 13.2306 1.40878 13.9386 0.508789C13.9626 0.484878 13.9747 0.496684 13.9748 0.520508C14.1908 1.55247 15.3782 1.74446 16.1222 0.976562C16.1462 0.952562 16.1704 0.964977 16.1584 1.00098C15.9185 2.14076 16.6267 2.68103 17.6105 2.62109C17.6585 2.62109 17.6702 2.65666 17.6222 2.68066C16.7825 3.10078 16.5785 4.32512 17.3703 4.8291C17.4063 4.8531 17.3946 4.87695 17.3586 4.87695C16.4946 4.961 15.9788 5.84866 16.5187 6.72461C16.5427 6.76061 16.5186 6.77274 16.4826 6.76074C15.3786 6.30479 14.3832 6.9887 14.5031 8.14062C14.5031 8.17662 14.4903 8.18834 14.4543 8.15234C13.5783 7.10896 12.115 7.26488 11.7668 8.4043C11.7548 8.4403 11.7302 8.45299 11.7062 8.41699C10.9622 7.44509 9.72655 7.69673 9.31853 8.76465C9.30653 8.80065 9.28268 8.80065 9.27068 8.76465C8.76668 7.70881 7.53031 7.79259 7.03825 8.94434C7.02625 8.98034 7.00268 8.99234 6.97868 8.94434C6.52258 8.06874 5.28639 8.15276 4.78239 9.31641C4.77039 9.35241 4.73482 9.35241 4.72282 9.31641C4.47064 8.28472 3.16274 8.3572 2.68279 9.24512C2.65879 9.29283 2.62224 9.26863 2.62224 9.2207C2.58619 8.33277 1.71039 8.08054 0.906418 8.72852C0.858427 8.7645 0.834569 8.72838 0.858566 8.69238C1.23033 8.03243 0.918042 7.22837 0.04216 7.36035C-0.00549692 7.37202 -0.0172597 7.32475 0.0304413 7.30078C0.786425 6.94079 0.858509 6.0051 0.150558 5.70508C0.102592 5.68109 0.114617 5.65726 0.150558 5.65723C0.834512 5.58523 1.19472 4.87676 0.678879 4.2168C0.654879 4.1808 0.667012 4.15695 0.715012 4.16895C1.6028 4.42064 2.22618 3.78421 1.99821 2.94434C1.98652 2.90879 1.99863 2.89714 2.03435 2.9209C2.69429 3.38885 3.60672 3.16081 3.59489 2.24902C3.59489 2.21304 3.60704 2.21235 3.63103 2.23633C4.29095 2.72823 5.27447 2.4888 5.22673 1.3252C5.22673 1.28928 5.25064 1.28866 5.27458 1.3125C5.87451 2.1884 7.13409 1.85284 7.15837 0.617188C7.15837 0.581285 7.18247 0.568848 7.1945 0.604492C7.7465 1.63649 9.07878 1.44467 9.47478 0.388672C9.48676 0.352808 9.49893 0.352724 9.51091 0.388672C10.0029 1.39664 11.2629 1.28859 11.7189 0.0166016C11.7308 -0.00708544 11.7431 -0.00727358 11.7551 0.0283203ZM12.7384 6.1123C9.93049 5.69237 6.43817 6.2448 4.12224 7.38477C4.13424 7.58877 4.20622 7.79297 4.20622 7.79297C6.61822 6.74897 9.93103 6.34046 12.631 6.77246C12.6344 6.76029 12.715 6.46479 12.7384 6.1123ZM1.55193 4.73438C1.49288 4.74565 1.4147 4.79479 1.37419 4.81348C1.33377 4.83214 1.30851 4.84714 1.3156 4.89062C1.41465 5.43508 1.5194 6.1145 1.6779 6.69727C1.76762 7.02924 1.81591 7.16506 1.91032 7.21094C1.99496 7.25103 2.0491 7.27006 2.15739 7.24219C2.23873 7.22122 2.32284 7.20833 2.37419 7.19922C2.45615 7.18217 2.46538 7.17127 2.45329 7.1084C2.3223 6.31202 2.01122 5.45475 1.83806 4.86328C1.81821 4.80231 1.8017 4.7896 1.7531 4.77734C1.69204 4.7641 1.63507 4.72118 1.55193 4.73438ZM3.63884 3.92773C3.59354 3.90952 3.53054 3.92366 3.4904 3.94531C3.4465 3.96783 3.45116 3.98752 3.46111 4.03027C3.54598 4.41298 3.66566 5.12033 3.81169 5.67773C3.44494 5.2661 3.1119 4.68226 2.89763 4.37891C2.8541 4.31521 2.81312 4.31661 2.74431 4.32031C2.67536 4.32402 2.60451 4.30379 2.54607 4.31738C2.49162 4.33005 2.44544 4.34434 2.36736 4.37891C2.2854 4.41437 2.26106 4.43289 2.27165 4.49609C2.40415 5.2249 2.51681 6.06088 2.76189 6.72656C2.79259 6.80565 2.82888 6.82181 2.91521 6.82227C3.00532 6.82182 3.07919 6.80549 3.16032 6.81934C3.24546 6.83238 3.32241 6.82589 3.38591 6.79883C3.44541 6.7727 3.44173 6.75361 3.43181 6.71094C3.37476 6.46557 3.22404 6.0324 3.1281 5.67285C3.3143 5.90873 3.49408 6.20334 3.77263 6.4834C3.83645 6.54642 3.86595 6.53181 3.93962 6.51465C4.00975 6.49834 4.08263 6.48922 4.1447 6.49121C4.2027 6.49404 4.25834 6.48556 4.32341 6.41309C4.38854 6.34056 4.40899 6.32285 4.39958 6.24707C4.33799 5.68226 4.03343 4.63651 3.91423 4.15918C3.88137 4.03549 3.83425 3.99324 3.76384 3.97266C3.72438 3.96137 3.68396 3.94587 3.63884 3.92773ZM5.5656 3.55176C5.05212 3.63426 4.60002 3.84695 4.09782 3.98828C4.02096 4.0112 4.00723 4.02296 4.04118 4.09375C4.06812 4.1496 4.09734 4.23697 4.12517 4.27637C4.15931 4.32683 4.19592 4.34864 4.25212 4.38672C4.30361 4.4216 4.34031 4.44309 4.38396 4.47949C4.42756 4.51585 4.47138 4.51115 4.549 4.49219C4.63466 4.47165 4.73276 4.44912 4.83806 4.4248C4.91295 4.8992 4.93397 5.66935 5.1613 6.11035C5.19373 6.17314 5.25265 6.2024 5.33318 6.19922C5.41787 6.19515 5.45201 6.20114 5.50603 6.20703C5.56011 6.21293 5.57759 6.21711 5.62321 6.2002C5.66486 6.18402 5.70818 6.1552 5.72478 6.13574C5.74439 6.11166 5.74776 6.08675 5.7404 6.02734C5.67623 5.58755 5.50828 4.77634 5.39275 4.28125C5.66783 4.20801 5.91503 4.13675 6.01579 4.08887C6.05664 4.06879 6.05623 4.04798 6.05095 4.02051C6.04491 3.9891 6.04043 3.96545 6.02654 3.93555C6.0034 3.87897 5.95349 3.85164 5.91228 3.80664C5.87653 3.76869 5.82466 3.68943 5.76189 3.61621C5.70509 3.55381 5.66455 3.53681 5.5656 3.55176ZM7.11052 3.20508C6.78881 3.21774 6.28064 3.38783 6.04118 3.43652C5.97061 3.45133 5.97163 3.48783 6.00896 3.54688C6.06689 3.63512 6.08985 3.72886 6.15056 3.80859C6.20313 4.28614 6.20649 5.05057 6.36931 5.64062C6.38626 5.69844 6.4106 5.72275 6.48161 5.71191C6.50517 5.70832 6.52875 5.70476 6.5529 5.70508C6.57808 5.73762 6.60765 5.76933 6.63103 5.79004C6.68749 5.84208 6.74757 5.84117 6.86638 5.79883C7.10425 5.714 7.42217 5.56862 7.78044 5.47754C7.823 5.46703 7.82539 5.45466 7.82634 5.43457C7.82728 5.4142 7.82451 5.39366 7.82243 5.35352C7.81842 5.30192 7.7777 5.29583 7.76189 5.24609C7.74554 5.19197 7.73189 5.12883 7.70036 5.08105C7.66882 5.03331 7.65539 5.02734 7.58318 5.03027C7.40226 5.03764 7.06245 5.11799 6.86833 5.17188C6.86177 5.0759 6.84977 4.97241 6.83806 4.86914C7.11069 4.82756 7.38352 4.73329 7.54997 4.68359C7.58095 4.67483 7.58615 4.65351 7.59196 4.6123C7.59505 4.57946 7.58196 4.54851 7.57439 4.52539C7.55984 4.48359 7.53072 4.47578 7.51286 4.43848C7.49498 4.40077 7.48564 4.33696 7.45232 4.27734C7.42535 4.23297 7.41586 4.22665 7.36345 4.22656C7.17399 4.23118 6.94696 4.28196 6.75407 4.34375C6.72144 4.18283 6.69227 4.02098 6.66325 3.88379C6.93549 3.83822 7.26291 3.72731 7.51384 3.70117C7.57759 3.69548 7.59301 3.68941 7.59099 3.64941C7.5877 3.60136 7.57596 3.5544 7.52556 3.48926C7.48494 3.43487 7.43709 3.38126 7.39861 3.31445C7.34856 3.22502 7.27097 3.1968 7.11052 3.20508ZM8.56462 2.88672C8.27677 2.89911 7.98417 3.04857 7.73357 3.12207C7.68641 3.1341 7.67165 3.15534 7.68767 3.20215C7.72898 3.31089 7.80557 3.36466 7.8615 3.45605C7.87514 3.47497 7.88928 3.4945 7.89861 3.50977C7.89601 4.18833 7.94024 4.99965 8.06267 5.35449C8.09968 5.45959 8.14697 5.53151 8.24821 5.54297C8.33286 5.55179 8.37791 5.56433 8.42693 5.57617C8.47608 5.58805 8.52966 5.603 8.58806 5.58203C8.6192 5.57138 8.6308 5.55875 8.62419 5.52734C8.5987 5.36893 8.5756 5.19783 8.56071 5.02246C8.78663 5.17976 9.03989 5.32698 9.21404 5.39258C9.30544 5.42898 9.41565 5.4397 9.49529 5.38477C9.56286 5.3351 9.58784 5.30056 9.62614 5.28125C9.66859 5.2616 9.7155 5.24574 9.74333 5.19531C9.76054 5.16177 9.75584 5.14574 9.73064 5.13184C9.49925 5.00696 9.23562 4.83677 9.00017 4.66406C9.35416 4.4373 9.52694 4.06135 9.52556 3.80859C9.52547 3.57203 9.42937 3.43185 9.29314 3.29102C9.1136 2.92503 8.90021 2.87032 8.56462 2.88672ZM10.7414 2.72266C10.6937 2.72805 10.6448 2.725 10.5685 2.72559C10.4962 2.72573 10.4404 2.73236 10.3752 2.75977C10.3522 2.77041 10.3487 2.77544 10.3478 2.80371C10.3464 2.82397 10.3654 2.85384 10.4035 2.90918C10.3736 2.92862 10.3315 2.94562 10.2853 2.96289C10.1927 2.99751 10.116 3.03468 10.0822 3.16309C10.0068 3.45739 9.89954 4.00508 9.85368 4.48926C9.82241 4.49683 9.78775 4.50944 9.76091 4.52051C9.71467 4.53782 9.71684 4.55736 9.72575 4.60059C9.74404 4.69109 9.78038 4.73141 9.82341 4.82715C9.8282 4.83452 9.82949 4.84222 9.83415 4.84961C9.83295 4.91002 9.83574 4.97036 9.83806 5.02637C9.8445 5.15446 9.88522 5.22686 9.96306 5.27441C10.0496 5.32897 10.059 5.37646 10.1213 5.39355C10.1793 5.411 10.215 5.40647 10.2424 5.39941C10.2697 5.3923 10.2759 5.37563 10.2785 5.32715C10.291 5.18892 10.3109 5.03782 10.3371 4.87793C10.5154 4.85372 10.7403 4.81539 10.9689 4.77344C11.0271 4.9319 11.0833 5.07114 11.1418 5.16113C11.2547 5.34142 11.372 5.34394 11.5031 5.3291C11.5904 5.31924 11.6553 5.32415 11.7218 5.30859C11.7885 5.29301 11.7856 5.2652 11.7599 5.21582C11.6211 4.94974 11.4948 4.47698 11.3742 4.01562C11.2491 3.55074 11.1378 3.09599 11.007 2.86523C10.9313 2.72925 10.8208 2.71375 10.7414 2.72266ZM15.672 4.62109C15.3903 4.55496 15.267 4.63125 15.2609 4.85645C15.2552 5.04911 15.3119 5.16921 15.6105 5.22559C15.9492 5.28727 15.9843 5.14725 16.0011 4.99219C16.0185 4.83309 15.9537 4.68724 15.672 4.62109ZM12.5607 2.56348C12.4144 2.47123 12.324 2.46333 12.2013 2.53711C11.8103 2.77035 11.5993 3.47514 11.714 4.08496C11.8086 4.58058 12.0639 4.81172 12.3625 4.92285C12.6596 5.13885 12.993 5.18454 13.2238 5.0752C13.3861 4.99564 13.506 4.84512 13.5549 4.67676C13.5991 4.53317 13.5245 4.46276 13.4963 4.37793C13.4686 4.29703 13.4395 4.19962 13.3791 4.14355C13.3226 4.08694 13.2906 4.09575 13.2629 4.15625C13.1416 4.44008 12.9053 4.68405 12.6203 4.66797C12.2366 4.46766 12.1403 3.44285 12.5597 2.9834C12.7275 3.02841 12.8514 3.27734 12.9416 3.54297C12.9692 3.62389 13.0247 3.64036 13.0734 3.58496C13.1225 3.5337 13.1531 3.49268 13.2209 3.43066C13.2882 3.36464 13.3455 3.31594 13.3185 3.1543C13.2977 3.00797 13.2512 2.84925 13.1301 2.70508C12.99 2.54328 12.7648 2.57885 12.5607 2.56348ZM15.0324 2.48828C14.5128 2.46178 14.0258 2.57588 13.5051 2.60938C13.4252 2.61575 13.4095 2.62393 13.4279 2.7002C13.4426 2.76036 13.4529 2.85202 13.4718 2.89648C13.4947 2.95296 13.5264 2.98229 13.5734 3.03125C13.6163 3.07594 13.6478 3.10481 13.6828 3.14941C13.7179 3.19396 13.762 3.19867 13.842 3.19629C13.93 3.19407 14.0299 3.19225 14.1379 3.19043C14.1122 3.67001 13.9733 4.42752 14.1037 4.90625C14.1224 4.9745 14.1735 5.0157 14.2531 5.0293C14.3366 5.04297 14.3685 5.05524 14.4201 5.07227C14.4716 5.08927 14.4874 5.09779 14.5353 5.09082C14.5795 5.08371 14.6283 5.06442 14.6486 5.04883C14.6727 5.0294 14.6815 5.00571 14.6867 4.94629C14.7157 4.50278 14.7199 3.67432 14.7101 3.16602C14.9942 3.15177 15.2508 3.1332 15.3595 3.10742C15.4038 3.09631 15.4088 3.07585 15.4093 3.04785C15.41 3.01599 15.4098 2.99203 15.4025 2.95996C15.3917 2.89982 15.3485 2.86309 15.3176 2.81055C15.2904 2.76599 15.2564 2.67675 15.2101 2.5918C15.1677 2.51909 15.1321 2.49431 15.0324 2.48828ZM15.7384 2.44629C15.6647 2.42428 15.6351 2.43273 15.6271 2.49219C15.5637 2.96386 15.4462 3.51305 15.4035 3.89062C15.375 4.13265 15.4233 4.21975 15.5187 4.28906C15.5961 4.34387 15.6522 4.34819 15.7267 4.39453C15.7824 4.43027 15.8486 4.47935 15.8996 4.49023C15.9505 4.5011 15.9798 4.49611 15.9894 4.4248C16.0636 3.96271 16.1029 3.43107 16.1359 2.97559C16.1557 2.70836 16.0716 2.61211 15.965 2.56543C15.8929 2.53151 15.8161 2.46884 15.7384 2.44629ZM10.8185 4.2998C10.6839 4.31905 10.5454 4.33856 10.4152 4.36133C10.4737 4.0248 10.5322 3.6922 10.5666 3.42676C10.6426 3.67174 10.7313 3.99169 10.8185 4.2998ZM8.49626 3.50293C8.69445 3.42592 8.97227 3.39039 9.09196 3.47656C9.1426 3.7452 8.81521 4.14197 8.50993 4.28027C8.49788 3.99638 8.49528 3.72776 8.49626 3.50293Z" fill="white"/>
</svg>
